<?xml version="1.0" encoding="UTF-8"?>
<!DOCTYPE svg PUBLIC "-//W3C//DTD SVG 1.1//EN" "http://www.w3.org/Graphics/SVG/1.1/DTD/svg11.dtd">
<!-- Creator: CorelDRAW X7 -->
<svg xmlns="http://www.w3.org/2000/svg" xml:space="preserve" width="35.7185mm" height="35.7189mm" version="1.1" style="shape-rendering:geometricPrecision; text-rendering:geometricPrecision; image-rendering:optimizeQuality; fill-rule:evenodd; clip-rule:evenodd"
viewBox="0 0 12721 12721"
 xmlns:xlink="http://www.w3.org/1999/xlink">
 <defs>
  <style type="text/css">
   <![CDATA[
    .fil0 {fill:#4F5792}
   ]]>
  </style>
 </defs>
 <g id="Layer_x0020_1">
  <path class="fil0" d="M11007 0l-9293 0c-947,0 -1714,767 -1714,1714l0 9293c0,946 767,1714 1714,1714l4583 0 8 -4546 -1181 0c-154,0 -278,-124 -279,-278l-5 -1465c-1,-154 124,-280 278,-280l1179 0 0 -1415c0,-1643 1004,-2538 2469,-2538l1203 0c154,0 279,125 279,279l0 1235c0,154 -125,279 -279,279l-738 0c-797,0 -951,379 -951,935l0 1225 1751 0c167,0 296,146 277,312l-174 1465c-16,140 -135,246 -277,246l-1569 0 -8 4546 2727 0c946,0 1714,-768 1714,-1714l0 -9293c0,-947 -768,-1714 -1714,-1714l0 0z"/>
 </g>
</svg>
