<?xml version="1.0" encoding="UTF-8"?>
<!DOCTYPE svg PUBLIC "-//W3C//DTD SVG 1.1//EN" "http://www.w3.org/Graphics/SVG/1.1/DTD/svg11.dtd">
<!-- Creator: CorelDRAW 2017 -->
<svg xmlns="http://www.w3.org/2000/svg" xml:space="preserve" width="100%" height="100%" version="1.1" style="shape-rendering:geometricPrecision; text-rendering:geometricPrecision; image-rendering:optimizeQuality; fill-rule:evenodd; clip-rule:evenodd"
viewBox="0 0 5496.05 620.61"
 xmlns:xlink="http://www.w3.org/1999/xlink">
 <defs>
  <style type="text/css">
   <![CDATA[
    .fil0 {fill:#2B2A29;fill-rule:nonzero}
   ]]>
  </style>
 </defs>
 <g id="Слой_x0020_1">
  <metadata id="CorelCorpID_0Corel-Layer"/>
  <path class="fil0" d="M619.76 620.61l-619.76 0 158.38 -620.61 619.76 0 -158.38 620.61zm-19.54 -26.25l144.98 -568.11 -567.27 0 -144.98 568.11 567.27 0zm-238.14 -121.92l-26.24 0 82.54 -323.43 26.24 0 -82.54 323.43zm851.2 148.17l-619.76 0 158.38 -620.61 236.22 0 -102.63 402.17 383.54 0 -55.75 218.44zm-19.54 -26.25l41.92 -164.25 -383.55 0 103.06 -403.86 -183.72 0 -144.98 568.11 567.27 0zm613.06 26.25l-619.76 0 158.38 -620.61 619.76 0 -158.38 620.61zm-19.54 -26.25l44.08 -172.72 -383.55 0 6.69 -26.24 383.55 0 45.38 -177.8 -383.55 0 6.7 -26.25 383.55 0 42.13 -165.1 -567.27 0 -144.98 568.11 567.27 0zm613.06 26.25l-619.76 0 158.38 -620.61 619.76 0 -158.38 620.61zm-19.54 -26.25l97.88 -383.54 -269.25 0 -56.18 220.14 -26.24 0 62.88 -246.39 295.49 0 40.4 -158.32 -567.27 0 -144.98 568.11 567.27 0zm613.06 26.25l-619.76 0 158.38 -620.61 619.76 0 -158.38 620.61zm-19.54 -26.25l144.98 -568.11 -269.25 0 -48.83 191.35 -26.24 0 48.83 -191.35 -271.78 0 -144.98 568.11 271.78 0 46.67 -182.88 26.24 0 -46.67 182.88 269.25 0zm613.06 26.25l-619.76 0 158.38 -620.61 619.76 0 -158.38 620.61zm-19.54 -26.25l67.41 -264.16 -95.68 0 6.7 -26.24 95.68 0 70.87 -277.71 -567.27 0 -144.98 568.11 567.27 0zm-179.88 -333.58l-26.25 0 45.81 -179.5 26.25 0 -45.81 179.5zm-73.46 287.86l-26.25 0 43.64 -171.02 26.25 0 -43.64 171.02zm866.4 71.97l-619.76 0 158.38 -620.61 619.76 0 -158.38 620.61zm-19.54 -26.25l144.98 -568.11 -567.27 0 -144.98 568.11 567.27 0zm-238.14 -121.92l-26.24 0 82.54 -323.43 26.24 0 -82.54 323.43zm851.2 148.17l-619.76 0 158.38 -620.61 619.76 0 -158.38 620.61zm-19.54 -26.25l144.98 -568.11 -164.26 0 -98.09 384.39 -26.25 0 98.09 -384.39 -376.76 0 -144.98 568.11 172.72 0 90.75 -355.6 26.24 0 -90.75 355.6 368.31 0zm613.06 26.25l-619.76 0 158.38 -620.61 502.08 0 87.43 118.53 -128.13 502.08zm-19.54 -26.25l117.43 -460.16 -79.56 -107.95 -460.16 0 -144.98 568.11 567.27 0zm-238.14 -121.92l-26.24 0 82.54 -323.43 26.24 0 -82.54 323.43z"/>
 </g>
</svg>
